General
Complete name : King.Kong.2005.Extended.Cut.BRRip.H264.AAC.5.1ch.Gopo.mp4
Format : MPEG-4
Format profile : Base Media
Codec ID : isom
File size : 3.03 GiB
Duration : 3h 20mn
Overall bit rate : 2 168 Kbps
Encoded date : UTC 2009-11-22 00:24:44
Tagged date : UTC 2009-11-22 00:24:44
Video #1
ID : 1
Format : AVC
Format/Info : Advanced Video Codec
Format profile : High@L4.1
Format settings, CABAC : Yes
Format settings, ReFrames : 4 frames
Codec ID : avc1
Codec ID/Info : Advanced Video Coding
Duration : 3h 20mn
Bit rate mode : Variable
Bit rate : 1 800 Kbps
Maximum bit rate : 8 492 Kbps
Width : 1 280 pixels
Height : 544 pixels
Display aspect ratio : 2.35:1
Frame rate mode : Constant
Frame rate : 23.976 fps
Resolution : 24 bits
Colorimetry : 4:2:0
Scan type : Progressive
Bits/(Pixel*Frame) : 0.108
Stream size : 2.52 GiB (83%)
Writing library : x264 core 68 r1183M f21daff
Encoding settings : cabac=1 / ref=4 / deblock=1:-1:-1 / analyse=0x3:0x113 / me=umh / subme=7 / psy_rd=1.0:0.0 / mixed_ref=1 / me_range=16 / chroma_me=1 / trellis=2 / 8x8dct=1 / cqm=0 / deadzone=21,11 / chroma_qp_offset=-2 / threads=3 / nr=0 / decimate=1 / mbaff=0 / bframes=3 / b_pyramid=0 / b_adapt=2 / b_bias=0 / direct=3 / wpredb=1 / keyint=250 / keyint_min=25 / scenecut=40 / rc=2pass / bitrate=1800 / ratetol=1.0 / qcomp=0.60 / qpmin=10 / qpmax=51 / qpstep=4 / cplxblur=20.0 / qblur=0.5 / vbv_maxrate=50000 / vbv_bufsize=50000 / ip_ratio=1.40 / pb_ratio=1.30 / aq=1:1.00
Encoded date : UTC 2009-11-21 01:53:48
Tagged date : UTC 2009-11-22 00:31:40
Audio #2
ID : 2
Format : AAC
Format/Info : Advanced Audio Codec
Format version : Version 4
Format profile : LC
Format settings, SBR : No
Codec ID : 40
Duration : 3h 20mn
Bit rate mode : Variable
Bit rate : 364 Kbps
Maximum bit rate : 420 Kbps
Channel(s) : 6 channels
Channel positions : Front: L C R, Rear: L R, LFE
Sampling rate : 48.0 KHz
Resolution : 16 bits
Stream size : 521 MiB (17%)
Encoded date : UTC 2009-11-22 00:30:36
Tagged date : UTC 2009-11-22 00:31:40
Sample : YES
Subtitle : English,Romanian

PLOT

Set in the 1930s, this is the story of a young and beautiful actress Ann Darrow from the world of vaudeville who finds herself lost in depression-era New York and her luck changes when she meets an over-ambitious filmmaker Carl Denham who brings her on an exploratory expedition to a remote island where she finds compassion and the true meaning of humanity with an ape Kong. The beauty and the beast finally meet their fate back in the city of New York where the filmmaker takes and displays the ape in quest of his fame by commercial exploitation which ultimately leads to catastrophe for everyone including a playwright Jack Driscoll who falls in love with Ann and plays an unlikely hero by trying to save her from Kong and her destiny.
Director: Peter Jackson
CASTING

Naomi Watts ... Ann Darrow
Jack Black ... Carl Denham
Adrien Brody ... Jack Driscoll
Thomas Kretschmann ... Captain Englehorn
Colin Hanks ... Preston
Andy Serkis ... Kong / Lumpy
Evan Parke ... Hayes
Jamie Bell ... Jimmy
Lobo Chan ... Choy
John Sumner ... Herb
Craig Hall ... Mike
Kyle Chandler ... Bruce Baxter
Bill Johnson ... Manny (as William Johnson)
Mark Hadlow ... Harry
Geraldine Brophy ... Maude

SOURCE: King.Kong.2005.Extended.Cut.1080p.BluRay.x264.Codres.mkv

Notes: For best performance I suggest you to use KMPlayer(find it with google) for playback.
I haven't tested the movies on a PS3 or Xbox or other devices than PC because I don't own one of them but feel free to test them if you have the oportunity.